<svg xmlns="http://www.w3.org/2000/svg" xmlns:xlink="http://www.w3.org/1999/xlink" width="1366" zoomAndPan="magnify" viewBox="0 0 1024.5 576" height="768" preserveAspectRatio="xMidYMid meet" version="1.0"><defs><g/><clipPath id="5b5a0a1c3c"><path d="M 0 161 L 269 161 L 269 575.859375 L 0 575.859375 Z M 0 161 " clip-rule="nonzero"/></clipPath><clipPath id="b938c539d8"><path d="M 0 0.140625 L 303 0.140625 L 303 451 L 0 451 Z M 0 0.140625 " clip-rule="nonzero"/></clipPath></defs><g fill="#ffffff" fill-opacity="1"><g transform="translate(158.799416, 270.174929)"><g><path d="M 70.453125 -29.125 L 30.875 -29.125 L 16.484375 0 L -10.296875 0 L 53.8125 -122.84375 L 85.015625 -122.84375 L 97.3125 0 L 72.46875 0 Z M 69.203125 -50.875 L 67.03125 -80.171875 C 66.46875 -87.472656 66.1875 -94.523438 66.1875 -101.328125 L 66.1875 -104.34375 C 63.738281 -97.65625 60.695312 -90.570312 57.0625 -83.09375 L 41.34375 -50.875 Z M 69.203125 -50.875 "/></g></g></g><g fill="#ffffff" fill-opacity="1"><g transform="translate(253.390534, 270.174929)"><g><path d="M 44.34375 -68.03125 L 50.875 -68.03125 C 58.1875 -68.03125 63.878906 -69.617188 67.953125 -72.796875 C 72.023438 -75.984375 74.0625 -80.835938 74.0625 -87.359375 C 74.0625 -91.929688 72.734375 -95.359375 70.078125 -97.640625 C 67.429688 -99.929688 63.265625 -101.078125 57.578125 -101.078125 L 51.375 -101.078125 Z M 39.921875 -46.9375 L 29.953125 0 L 4.4375 0 L 30.296875 -122.34375 L 60.328125 -122.34375 C 73.554688 -122.34375 83.488281 -119.492188 90.125 -113.796875 C 96.757812 -108.109375 100.078125 -99.769531 100.078125 -88.78125 C 100.078125 -79.96875 97.757812 -72.394531 93.125 -66.0625 C 88.5 -59.726562 81.835938 -55.03125 73.140625 -51.96875 L 94.96875 0 L 67.1875 0 L 49.875 -46.9375 Z M 39.921875 -46.9375 "/></g></g></g><g fill="#ffffff" fill-opacity="1"><g transform="translate(344.718019, 270.174929)"><g><path d="M 104.34375 0 L 75.734375 0 L 45.9375 -92.546875 L 45.4375 -92.546875 L 45.109375 -89.875 C 43.316406 -77.820312 41.472656 -67.054688 39.578125 -57.578125 L 27.453125 0 L 4.4375 0 L 30.296875 -122.34375 L 60.171875 -122.34375 L 88.609375 -32.21875 L 88.953125 -32.21875 C 89.617188 -36.457031 90.703125 -42.507812 92.203125 -50.375 C 93.710938 -58.238281 98.738281 -82.226562 107.28125 -122.34375 L 130.203125 -122.34375 Z M 104.34375 0 "/></g></g></g><g fill="#ffffff" fill-opacity="1"><g transform="translate(461.066676, 270.174929)"><g><path d="M 94.96875 0 L 69.375 0 L 80.578125 -52.796875 L 41.171875 -52.796875 L 29.953125 0 L 4.4375 0 L 30.296875 -122.34375 L 55.890625 -122.34375 L 45.765625 -74.390625 L 85.1875 -74.390625 L 95.3125 -122.34375 L 120.828125 -122.34375 Z M 94.96875 0 "/></g></g></g><g fill="#ffffff" fill-opacity="1"><g transform="translate(568.042875, 270.174929)"><g><path d="M 72.796875 0 L 4.4375 0 L 30.296875 -122.34375 L 98.734375 -122.34375 L 94.21875 -101.078125 L 51.375 -101.078125 L 45.765625 -74.21875 L 85.6875 -74.21875 L 81.078125 -52.96875 L 41.171875 -52.96875 L 34.46875 -21.421875 L 77.3125 -21.421875 Z M 72.796875 0 "/></g></g></g><g fill="#ffffff" fill-opacity="1"><g transform="translate(647.905818, 270.174929)"><g><path d="M 70.125 -30.875 L 116.234375 -122.34375 L 151.625 -122.34375 L 125.765625 0 L 102.34375 0 L 114.46875 -57.90625 C 117.425781 -71.6875 120.359375 -83.988281 123.265625 -94.8125 L 122.84375 -94.8125 L 75.234375 0 L 51.71875 0 L 46.609375 -94.8125 L 46.28125 -94.8125 C 45.664062 -89.894531 44.601562 -83.445312 43.09375 -75.46875 C 41.582031 -67.5 36.367188 -42.34375 27.453125 0 L 4.4375 0 L 30.296875 -122.34375 L 64.09375 -122.34375 L 69.78125 -30.875 Z M 70.125 -30.875 "/></g></g></g><g fill="#ffffff" fill-opacity="1"><g transform="translate(158.799416, 434.965843)"><g><path d="M 70.125 -30.875 L 116.234375 -122.34375 L 151.625 -122.34375 L 125.765625 0 L 102.34375 0 L 114.46875 -57.90625 C 117.425781 -71.6875 120.359375 -83.988281 123.265625 -94.8125 L 122.84375 -94.8125 L 75.234375 0 L 51.71875 0 L 46.609375 -94.8125 L 46.28125 -94.8125 C 45.664062 -89.894531 44.601562 -83.445312 43.09375 -75.46875 C 41.582031 -67.5 36.367188 -42.34375 27.453125 0 L 4.4375 0 L 30.296875 -122.34375 L 64.09375 -122.34375 L 69.78125 -30.875 Z M 70.125 -30.875 "/></g></g></g><g fill="#ffffff" fill-opacity="1"><g transform="translate(296.570903, 434.965843)"><g><path d="M 70.453125 -29.125 L 30.875 -29.125 L 16.484375 0 L -10.296875 0 L 53.8125 -122.84375 L 85.015625 -122.84375 L 97.3125 0 L 72.46875 0 Z M 69.203125 -50.875 L 67.03125 -80.171875 C 66.46875 -87.472656 66.1875 -94.523438 66.1875 -101.328125 L 66.1875 -104.34375 C 63.738281 -97.65625 60.695312 -90.570312 57.0625 -83.09375 L 41.34375 -50.875 Z M 69.203125 -50.875 "/></g></g></g><g fill="#ffffff" fill-opacity="1"><g transform="translate(391.162021, 434.965843)"><g><path d="M 44.34375 -68.03125 L 50.875 -68.03125 C 58.1875 -68.03125 63.878906 -69.617188 67.953125 -72.796875 C 72.023438 -75.984375 74.0625 -80.835938 74.0625 -87.359375 C 74.0625 -91.929688 72.734375 -95.359375 70.078125 -97.640625 C 67.429688 -99.929688 63.265625 -101.078125 57.578125 -101.078125 L 51.375 -101.078125 Z M 39.921875 -46.9375 L 29.953125 0 L 4.4375 0 L 30.296875 -122.34375 L 60.328125 -122.34375 C 73.554688 -122.34375 83.488281 -119.492188 90.125 -113.796875 C 96.757812 -108.109375 100.078125 -99.769531 100.078125 -88.78125 C 100.078125 -79.96875 97.757812 -72.394531 93.125 -66.0625 C 88.5 -59.726562 81.835938 -55.03125 73.140625 -51.96875 L 94.96875 0 L 67.1875 0 L 49.875 -46.9375 Z M 39.921875 -46.9375 "/></g></g></g><g fill="#ffffff" fill-opacity="1"><g transform="translate(482.489495, 434.965843)"><g><path d="M 70.453125 -29.125 L 30.875 -29.125 L 16.484375 0 L -10.296875 0 L 53.8125 -122.84375 L 85.015625 -122.84375 L 97.3125 0 L 72.46875 0 Z M 69.203125 -50.875 L 67.03125 -80.171875 C 66.46875 -87.472656 66.1875 -94.523438 66.1875 -101.328125 L 66.1875 -104.34375 C 63.738281 -97.65625 60.695312 -90.570312 57.0625 -83.09375 L 41.34375 -50.875 Z M 69.203125 -50.875 "/></g></g></g><g fill="#ffffff" fill-opacity="1"><g transform="translate(577.080626, 434.965843)"><g><path d="M 47.78125 0 L 22.265625 0 L 43.515625 -100.75 L 14.0625 -100.75 L 18.65625 -122.34375 L 103.171875 -122.34375 L 98.578125 -100.75 L 69.03125 -100.75 Z M 47.78125 0 "/></g></g></g><g fill="#ffffff" fill-opacity="1"><g transform="translate(655.018863, 434.965843)"><g><path d="M 94.96875 0 L 69.375 0 L 80.578125 -52.796875 L 41.171875 -52.796875 L 29.953125 0 L 4.4375 0 L 30.296875 -122.34375 L 55.890625 -122.34375 L 45.765625 -74.390625 L 85.1875 -74.390625 L 95.3125 -122.34375 L 120.828125 -122.34375 Z M 94.96875 0 "/></g></g></g><g fill="#ffffff" fill-opacity="1"><g transform="translate(761.995062, 434.965843)"><g><path d="M 119.828125 -78.484375 C 119.828125 -62.703125 117.066406 -48.578125 111.546875 -36.109375 C 106.023438 -23.640625 98.460938 -14.222656 88.859375 -7.859375 C 79.265625 -1.503906 68.222656 1.671875 55.734375 1.671875 C 41.453125 1.671875 30.304688 -2.441406 22.296875 -10.671875 C 14.296875 -18.898438 10.296875 -30.320312 10.296875 -44.9375 C 10.296875 -59.71875 13.054688 -73.3125 18.578125 -85.71875 C 24.097656 -98.132812 31.710938 -107.660156 41.421875 -114.296875 C 51.128906 -120.941406 62.34375 -124.265625 75.0625 -124.265625 C 89.289062 -124.265625 100.304688 -120.242188 108.109375 -112.203125 C 115.921875 -104.171875 119.828125 -92.929688 119.828125 -78.484375 Z M 72.96875 -102.671875 C 66.21875 -102.671875 60.023438 -100.117188 54.390625 -95.015625 C 48.753906 -89.910156 44.332031 -82.894531 41.125 -73.96875 C 37.914062 -65.039062 36.3125 -55.363281 36.3125 -44.9375 C 36.3125 -36.738281 38.164062 -30.546875 41.875 -26.359375 C 45.59375 -22.171875 50.828125 -20.078125 57.578125 -20.078125 C 64.328125 -20.078125 70.472656 -22.503906 76.015625 -27.359375 C 81.566406 -32.210938 85.90625 -39.070312 89.03125 -47.9375 C 92.15625 -56.8125 93.71875 -66.773438 93.71875 -77.828125 C 93.71875 -85.742188 91.90625 -91.863281 88.28125 -96.1875 C 84.65625 -100.507812 79.550781 -102.671875 72.96875 -102.671875 Z M 72.96875 -102.671875 "/></g></g></g><g fill="#ffffff" fill-opacity="1"><g transform="translate(874.075916, 434.965843)"><g><path d="M 104.34375 0 L 75.734375 0 L 45.9375 -92.546875 L 45.4375 -92.546875 L 45.109375 -89.875 C 43.316406 -77.820312 41.472656 -67.054688 39.578125 -57.578125 L 27.453125 0 L 4.4375 0 L 30.296875 -122.34375 L 60.171875 -122.34375 L 88.609375 -32.21875 L 88.953125 -32.21875 C 89.617188 -36.457031 90.703125 -42.507812 92.203125 -50.375 C 93.710938 -58.238281 98.738281 -82.226562 107.28125 -122.34375 L 130.203125 -122.34375 Z M 104.34375 0 "/></g></g></g><g clip-path="url(#5b5a0a1c3c)"><path stroke-linecap="round" transform="matrix(-0.675809, 1.501986, -1.502796, -0.676173, 136.594039, 303.790143)" fill="none" stroke-linejoin="miter" d="M 8.001275 8.000186 L 108.066664 8.000132 " stroke="#ffffff" stroke-width="16" stroke-opacity="1" stroke-miterlimit="4"/></g><g clip-path="url(#b938c539d8)"><path stroke-linecap="round" transform="matrix(-0.717971, 1.486939, -1.483973, -0.716539, 170.667983, 109.536363)" fill="none" stroke-linejoin="miter" d="M 8.000246 8.00099 L 132.720744 7.99912 " stroke="#ffffff" stroke-width="16" stroke-opacity="1" stroke-miterlimit="4"/></g></svg>